HIERARCHY
ROOT hip
{
  OFFSET 0 0 0
  CHANNELS 6 Xposition Yposition Zposition Zrotation Yrotation Xrotation
  JOINT abdomen
  {
    OFFSET 0 20.6881 -0.73152
    CHANNELS 3 Zrotation Xrotation Yrotation
    JOINT chest
    {
      OFFSET 0 11.7043 -0.48768
      CHANNELS 3 Zrotation Xrotation Yrotation
      JOINT neck
      {
        OFFSET 0 22.1894 -2.19456
        CHANNELS 3 Zrotation Xrotation Yrotation
        JOINT head
        {
          OFFSET -0.24384 7.07133 1.2192
          CHANNELS 3 Zrotation Xrotation Yrotation
          JOINT leftEye
          {
            OFFSET 4.14528 8.04674 8.04672
            CHANNELS 3 Zrotation Xrotation Yrotation
            End Site
            {
              OFFSET 1 0 0
            }
          }
          JOINT rightEye
          {
            OFFSET -3.6576 8.04674 8.04672
            CHANNELS 3 Zrotation Xrotation Yrotation
            End Site
            {
              OFFSET 1 0 0
            }
          }
        }
      }
      JOINT rCollar
      {
        OFFSET -2.68224 19.2634 -4.8768
        CHANNELS 3 Zrotation Xrotation Yrotation
        JOINT rShldr
        {
          OFFSET -8.77824 -1.95073 1.46304
          CHANNELS 3 Zrotation Xrotation Yrotation
          JOINT rForeArm
          {
            OFFSET -28.1742 -1.7115 0.48768
            CHANNELS 3 Zrotation Xrotation Yrotation
            JOINT rHand
            {
              OFFSET -22.5879 0.773209 7.07136
              CHANNELS 3 Zrotation Xrotation Yrotation
              JOINT rThumb1
              {
                OFFSET -1.2192 -0.487915 3.41376
                CHANNELS 3 Zrotation Xrotation Yrotation
                JOINT rThumb2
                {
                  OFFSET -3.37035 -0.52449 3.41376
                  CHANNELS 3 Zrotation Xrotation Yrotation
                  End Site
                  {
                    OFFSET -1.78271 -1.18214 1.43049
                  }
                }
              }
              JOINT rIndex1
              {
                OFFSET -7.75947 0.938293 5.60832
                CHANNELS 3 Zrotation Xrotation Yrotation
                JOINT rIndex2
                {
                  OFFSET -2.54057 -0.884171 1.56538
                  CHANNELS 3 Zrotation Xrotation Yrotation
                  End Site
                  {
                    OFFSET -1.62519 -0.234802 1.16502
                  }
                }
              }
              JOINT rMid1
              {
                OFFSET -8.24714 1.18213 3.41376
                CHANNELS 3 Zrotation Xrotation Yrotation
                JOINT rMid2
                {
                  OFFSET -3.10165 -0.590103 1.0647
                  CHANNELS 3 Zrotation Xrotation Yrotation
                  End Site
                  {
                    OFFSET -2.48547 -0.328903 0.83742
                  }
                }
              }
              JOINT rRing1
              {
                OFFSET -8.82822 0.546677 1.51678
                CHANNELS 3 Zrotation Xrotation Yrotation
                JOINT rRing2
                {
                  OFFSET -2.60934 -0.819778 -0.0198488
                  CHANNELS 3 Zrotation Xrotation Yrotation
                  End Site
                  {
                    OFFSET -2.33842 -0.294052 0.168128
                  }
                }
              }
              JOINT rPinky1
              {
                OFFSET -8.27202 -0.0477905 -0.4584
                CHANNELS 3 Zrotation Xrotation Yrotation
                JOINT rPinky2
                {
                  OFFSET -1.82734 -0.647385 -0.700984
                  CHANNELS 3 Zrotation Xrotation Yrotation
                  End Site
                  {
                    OFFSET -1.69225 -0.51767 -0.607171
                  }
                }
              }
            }
          }
        }
      }
      JOINT lCollar
      {
        OFFSET 2.68224 19.2634 -4.8768
        CHANNELS 3 Zrotation Xrotation Yrotation
        JOINT lShldr
        {
          OFFSET 8.77824 -1.95073 1.46304
          CHANNELS 3 Zrotation Xrotation Yrotation
          JOINT lForeArm
          {
            OFFSET 28.1742 -1.7115 0.48768
            CHANNELS 3 Zrotation Xrotation Yrotation
            JOINT lHand
            {
              OFFSET 22.5879 0.773209 7.07136
              CHANNELS 3 Zrotation Xrotation Yrotation
              JOINT lThumb1
              {
                OFFSET 1.2192 -0.487915 3.41376
                CHANNELS 3 Zrotation Xrotation Yrotation
                JOINT lThumb2
                {
                  OFFSET 3.37035 -0.52449 3.41376
                  CHANNELS 3 Zrotation Xrotation Yrotation
                  End Site
                  {
                    OFFSET 1.78271 -1.18214 1.43049
                  }
                }
              }
              JOINT lIndex1
              {
                OFFSET 7.75947 0.938293 5.60832
                CHANNELS 3 Zrotation Xrotation Yrotation
                JOINT lIndex2
                {
                  OFFSET 2.54057 -0.884171 1.56538
                  CHANNELS 3 Zrotation Xrotation Yrotation
                  End Site
                  {
                    OFFSET 1.62519 -0.234802 1.16502
                  }
                }
              }
              JOINT lMid1
              {
                OFFSET 8.24714 1.18213 3.41376
                CHANNELS 3 Zrotation Xrotation Yrotation
                JOINT lMid2
                {
                  OFFSET 3.10165 -0.590103 1.0647
                  CHANNELS 3 Zrotation Xrotation Yrotation
                  End Site
                  {
                    OFFSET 2.48547 -0.328903 0.83742
                  }
                }
              }
              JOINT lRing1
              {
                OFFSET 8.82822 0.546677 1.51678
                CHANNELS 3 Zrotation Xrotation Yrotation
                JOINT lRing2
                {
                  OFFSET 2.60934 -0.819778 -0.0198488
                  CHANNELS 3 Zrotation Xrotation Yrotation
                  End Site
                  {
                    OFFSET 2.33842 -0.294052 0.168128
                  }
                }
              }
              JOINT lPinky1
              {
                OFFSET 8.27202 -0.0477905 -0.4584
                CHANNELS 3 Zrotation Xrotation Yrotation
                JOINT lPinky2
                {
                  OFFSET 1.82734 -0.647385 -0.700984
                  CHANNELS 3 Zrotation Xrotation Yrotation
                  End Site
                  {
                    OFFSET 1.69225 -0.51767 -0.607171
                  }
                }
              }
            }
          }
        }
      }
    }
  }
  JOINT rButtock
  {
    OFFSET -8.77824 4.35084 1.2192
    CHANNELS 3 Zrotation Xrotation Yrotation
    JOINT rThigh
    {
      OFFSET 0 -1.70687 -2.19456
      CHANNELS 3 Zrotation Xrotation Yrotation
      JOINT rShin
      {
        OFFSET 0 -36.8199 0.73152
        CHANNELS 3 Zrotation Xrotation Yrotation
        JOINT rFoot
        {
          OFFSET 0.73152 -45.1104 -5.12064
          CHANNELS 3 Zrotation Xrotation Yrotation
          End Site
          {
            OFFSET -1.1221 -3.69964 12.103
          }
        }
      }
    }
  }
  JOINT lButtock
  {
    OFFSET 8.77824 4.35084 1.2192
    CHANNELS 3 Zrotation Xrotation Yrotation
    JOINT lThigh
    {
      OFFSET 0 -1.70687 -2.19456
      CHANNELS 3 Zrotation Xrotation Yrotation
      JOINT lShin
      {
        OFFSET 0 -36.8199 0.73152
        CHANNELS 3 Zrotation Xrotation Yrotation
        JOINT lFoot
        {
          OFFSET -0.73152 -45.1104 -5.12064
          CHANNELS 3 Zrotation Xrotation Yrotation
          End Site
          {
            OFFSET 1.1221 -3.69964 12.103
          }
        }
      }
    }
  }
}
MOTION
Frames:	5
Frame Time:	0.00833333
41.2753 85.1968 30.6422 0.0 0.0 0.0 0.583968 -0.00303824 0.0166886 0.16117 -0.0046852 0.0279253 -2.34455e-15 0.0 -3.72721e-17 -7.17488e-15 9.54166e-15 -1.10263e-16 -0.0 0.0 0.0 -0.0 0.0 0.0 -1.09464e-15 6.60027e-18 1.98785e-16 -2.46906e-14 2.98177e-16 1.98785e-16 -4.34841e-13 1.36167e-13 -3.81667e-14 -5.02263e-12 -1.09257e-13 -5.40694e-14 -1.18419e-11 5.26236e-14 -1.78111e-13 -2.04665e-11 8.90555e-14 -2.98972e-13 -1.18428e-11 4.85035e-14 -1.84472e-13 7.73091 5.47488 0.417314 -1.18435e-11 5.2181e-14 -1.78111e-13 2.90554 0.965183 0.102902 -1.18359e-11 5.18828e-14 -1.7334e-13 10.2786 0.731801 0.0259123 -1.18523e-11 5.60573e-14 -1.62208e-13 2.22167 -0.733487 -0.20892 -1.29085e-15 5.62964e-18 -1.98785e-16 -2.66146e-14 9.31803e-17 -9.93923e-16 -4.38121e-13 -1.30602e-13 2.54444e-14 -5.01072e-12 1.37559e-13 -8.5875e-14 -1.18188e-11 1.20559e-14 -1.7175e-13 -2.03953e-11 2.22639e-14 -2.8625e-13 -1.18189e-11 9.54166e-15 -1.52667e-13 -7.73091 5.47488 -0.417314 -1.1817e-11 1.11319e-14 -1.68569e-13 -2.90554 0.965183 -0.102902 -1.18143e-11 1.13307e-14 -1.67774e-13 -10.2786 0.731801 -0.0259123 -1.18116e-11 1.55052e-14 -1.81292e-13 -2.22167 -0.733487 0.20892 -2.03217e-16 0.0 -3.88251e-19 0.939998 -4.56521 -0.0787568 -0.00191306 2.71742 -0.00754265 -0.501048 1.84803 0.0947611 2.03217e-16 0.0 3.88251e-19 -0.0507513 -2.31868 0.0217183 0.00816007 -1.35176 0.0697839 0.492772 3.67058 -0.130803
38.426 84.0383 27.1656 -2.9096 -81.1376 5.1695 0.748087 1.76628 0.710647 0.125191 -0.553538 0.229669 -1.06243 1.7382 0.343818 1.74988 -2.80667 0.961153 -0.0 0.0 0.0 -0.0 0.0 0.0 7.62328e-15 -2.40547e-14 -1.01494e-13 20.7408 7.4662 -1.11024 -5.0021 -2.4538 7.60639 0.0239722 3.43556 0.479705 1.86122e-10 -1.65397e-10 3.57494e-11 3.21989e-10 -2.85846e-10 5.96148e-11 1.86122e-10 -1.65401e-10 3.57421e-11 7.73091 5.47488 0.417314 1.86122e-10 -1.65399e-10 3.57473e-11 2.90554 0.965183 0.102902 1.86126e-10 -1.65399e-10 3.57526e-11 10.2786 0.731801 0.0259123 1.86112e-10 -1.65395e-10 3.57625e-11 2.22167 -0.733487 -0.20892 7.46855e-15 -2.4056e-14 -1.01823e-13 -21.9948 0.641664 -0.0889414 2.23123 -0.796754 -3.68516 -0.0724127 5.97514 -0.823348 6.22683e-10 -7.54549e-10 -4.884e-10 1.06556e-09 -1.31053e-09 -8.54461e-10 6.22681e-10 -7.5455e-10 -4.88384e-10 -7.73091 5.47488 -0.417314 6.22686e-10 -7.54551e-10 -4.88402e-10 -2.90554 0.965183 -0.102902 6.22686e-10 -7.54549e-10 -4.88398e-10 -10.2786 0.731801 -0.0259123 6.22689e-10 -7.54545e-10 -4.88409e-10 -2.22167 -0.733487 0.20892 -2.03217e-16 0.0 -3.88251e-19 1.6971 -7.67305 4.59426 0.0162484 9.28976 0.125197 -1.1114 -2.37812 -5.71267 2.03217e-16 0.0 3.88251e-19 0.307336 -4.65388 -1.15719 -0.0257637 5.08195 -0.097593 1.26256 -2.00832 6.76074
38.3974 84.0398 27.1529 -2.6444 -81.1111 4.9063 0.870959 3.63665 1.44634 0.0930055 -1.13405 0.442937 -2.20983 3.57599 0.708624 3.7042 -5.76959 1.98575 -0.0 0.0 0.0 -0.0 0.0 0.0 1.70172e-14 -5.41421e-14 -2.14246e-13 42.9921 15.3558 -2.3492 -9.59249 -4.9071 15.6983 -0.0136676 7.06541 0.992418 4.02206e-10 -3.51373e-10 8.3129e-11 6.95876e-10 -6.07231e-10 1.39127e-10 4.02205e-10 -3.51378e-10 8.31206e-11 7.73091 5.47488 0.417314 4.02206e-10 -3.51376e-10 8.31246e-11 2.90554 0.965183 0.102902 4.02207e-10 -3.51377e-10 8.31304e-11 10.2786 0.731801 0.0259123 4.02196e-10 -3.51374e-10 8.31391e-11 2.22167 -0.733487 -0.20892 1.69078e-14 -5.41438e-14 -2.14501e-13 -45.2426 1.32095 -0.179129 4.47512 -1.62626 -7.57716 0.0417266 12.2876 -1.72405 1.32884e-09 -1.58887e-09 -1.0372e-09 2.27406e-09 -2.7596e-09 -1.81448e-09 1.32884e-09 -1.58887e-09 -1.03719e-09 -7.73091 5.47488 -0.417314 1.32884e-09 -1.58887e-09 -1.03721e-09 -2.90554 0.965183 -0.102902 1.32884e-09 -1.58887e-09 -1.0372e-09 -10.2786 0.731801 -0.0259123 1.32885e-09 -1.58886e-09 -1.03721e-09 -2.22167 -0.733487 0.20892 -2.03217e-16 0.0 -3.88251e-19 3.05311 -10.8575 9.61844 0.00108568 16.2392 0.273039 -2.68655 -6.7233 -11.9232 2.03217e-16 0.0 3.88251e-19 0.578937 -7.11839 -2.41413 -0.0200825 11.885 -0.279731 3.55749 -7.79934 14.1687
38.38 84.0379 27.1176 -2.5973 -81.0924 4.9215 0.947304 5.30175 2.10657 0.0648303 -1.65116 0.633386 -3.2501 5.21386 1.03526 5.53461 -8.41049 2.91133 -0.0 0.0 0.0 -0.0 0.0 0.0 2.50591e-14 -7.21773e-14 -3.04881e-13 63.1499 22.3636 -3.57139 -13.0976 -6.84359 22.9711 -0.103056 10.3038 1.46008 5.82051e-10 -4.96296e-10 1.07604e-10 1.0069e-09 -8.57716e-10 1.79442e-10 5.82051e-10 -4.96301e-10 1.07595e-10 7.73091 5.47488 0.417314 5.82052e-10 -4.963e-10 1.07598e-10 2.90554 0.965183 0.102902 5.8205e-10 -4.96302e-10 1.07604e-10 10.2786 0.731801 0.0259123 5.82042e-10 -4.96298e-10 1.07612e-10 2.22167 -0.733487 -0.20892 2.49874e-14 -7.21792e-14 -3.05071e-13 -65.9783 1.92497 -0.266958 6.38811 -2.35075 -11.0638 0.320084 17.9102 -2.58182 1.89169e-09 -2.26367e-09 -1.46486e-09 3.23746e-09 -3.93162e-09 -2.56281e-09 1.89168e-09 -2.26367e-09 -1.46485e-09 -7.73091 5.47488 -0.417314 1.89169e-09 -2.26368e-09 -1.46487e-09 -2.90554 0.965183 -0.102902 1.89169e-09 -2.26367e-09 -1.46486e-09 -10.2786 0.731801 -0.0259123 1.89169e-09 -2.26367e-09 -1.46486e-09 -2.22167 -0.733487 0.20892 -2.03217e-16 0.0 -3.88251e-19 4.75246 -13.5502 14.2199 -0.0453403 22.4339 0.417316 -4.89405 -10.3681 -17.6093 2.03217e-16 0.0 3.88251e-19 0.731926 -9.30953 -3.55035 0.0234156 17.9489 -0.453215 6.88385 -12.5423 21.0563
38.3732 84.0349 27.0755 -2.4255 -81.1143 4.8352 0.998598 6.45667 2.5705 0.0384877 -2.00983 0.766568 -3.97805 6.35267 1.26286 6.85305 -10.2555 3.56285 -0.0 0.0 0.0 -0.0 0.0 0.0 2.97213e-14 -6.00819e-14 -3.4022e-13 77.3966 27.2 -4.52239 -15.2234 -7.98523 28.0498 -0.197674 12.5662 1.79522 6.71302e-10 -5.38586e-10 7.48194e-11 1.16076e-09 -9.30948e-10 1.21768e-10 6.71303e-10 -5.3859e-10 7.48098e-11 7.73091 5.47488 0.417314 6.71302e-10 -5.3859e-10 7.4813e-11 2.90554 0.965183 0.102902 6.713e-10 -5.38592e-10 7.48186e-11 10.2786 0.731801 0.0259123 6.71293e-10 -5.38588e-10 7.48257e-11 2.22167 -0.733487 -0.20892 2.96676e-14 -6.00838e-14 -3.40369e-13 -80.4374 2.34085 -0.348778 7.68677 -2.8498 -13.5293 0.622074 21.8226 -3.22613 2.09625e-09 -2.53968e-09 -1.58966e-09 3.58807e-09 -4.411e-09 -2.78195e-09 2.09624e-09 -2.53968e-09 -1.58965e-09 -7.73091 5.47488 -0.417314 2.09625e-09 -2.53969e-09 -1.58967e-09 -2.90554 0.965183 -0.102902 2.09625e-09 -2.53968e-09 -1.58966e-09 -10.2786 0.731801 -0.0259123 2.09625e-09 -2.53967e-09 -1.58967e-09 -2.22167 -0.733487 0.20892 -2.03217e-16 0.0 -3.88251e-19 6.22168 -15.3134 17.5286 -0.0986129 26.7424 0.528327 -6.87746 -12.7167 -21.6943 2.03217e-16 0.0 3.88251e-19 0.795208 -10.8306 -4.35394 0.0773274 22.1653 -0.583981 9.90965 -15.4894 26.0847
